<svg width="128" height="128" viewBox="0 0 128 128" fill="none" xmlns="http://www.w3.org/2000/svg">
<g clip-path="url(#clip0_1_2)">
<circle cx="64" cy="64" r="64" fill="#111827"/>
<path d="M78.6465 70.1973C78.6465 71.4668 78.6074 72.6191 78.5293 73.6543C78.4512 74.6699 78.3047 75.6074 78.0898 76.4668C77.8945 77.3066 77.6797 78.0488 77.4453 78.6934C77.2109 79.3379 76.8789 79.9141 76.4492 80.4219C76.0195 80.9102 75.5898 81.3301 75.1602 81.6816C74.75 82.0332 74.2031 82.3359 73.5195 82.5898C72.8555 82.8242 72.2109 83.0098 71.5859 83.1465C70.9609 83.3027 70.1797 83.4199 69.2422 83.498C68.3047 83.5762 67.4063 83.625 66.5469 83.6445C65.707 83.6836 64.6719 83.7031 63.4414 83.7031C61.1172 83.7031 59.1641 83.6348 57.582 83.498C56.0195 83.3613 54.6816 83.0684 53.5684 82.6191C52.4746 82.1699 51.625 81.7109 51.0195 81.2422C50.4141 80.7539 49.9355 79.9922 49.584 78.957C49.2324 77.9023 48.998 76.8965 48.8809 75.9395C48.7832 74.9824 48.6953 73.625 48.6172 71.8672L54.0371 70.9883C54.0957 71.418 54.1543 72.0234 54.2129 72.8047C54.3301 74.0156 54.4375 74.875 54.5352 75.3828C54.6523 75.8711 54.8672 76.418 55.1797 77.0234C55.4922 77.6289 55.9805 78.0293 56.6445 78.2246C57.3086 78.4004 58.1777 78.5566 59.252 78.6934C60.3262 78.8301 61.7617 78.8984 63.5586 78.8984C65.043 78.8984 66.2637 78.8594 67.2207 78.7812C68.1777 78.7031 69.0176 78.5469 69.7402 78.3125C70.4629 78.0586 71.0098 77.7754 71.3809 77.4629C71.752 77.1504 72.0449 76.6719 72.2598 76.0273C72.4941 75.3633 72.6406 74.6797 72.6992 73.9766C72.7578 73.2734 72.7773 72.3359 72.7578 71.1641C72.7383 68.5859 72.5918 66.8086 72.3184 65.832C72.0645 64.8359 71.5078 64.25 70.6484 64.0742L56.0586 61.5254C53.5195 61.0957 51.752 60.1289 50.7559 58.625C49.7598 57.1211 49.2324 54.6895 49.1738 51.3301C49.1738 49.5332 49.2617 48 49.4375 46.7305C49.6328 45.4414 49.9551 44.3184 50.4043 43.3613C50.873 42.3848 51.4395 41.6035 52.1035 41.0176C52.7871 40.4316 53.6758 39.9629 54.7695 39.6113C55.8828 39.2402 57.0938 38.9961 58.4023 38.8789C59.7305 38.7422 61.3516 38.6738 63.2656 38.6738C64.8281 38.6738 66.166 38.7129 67.2793 38.791C68.4121 38.8496 69.5059 38.9668 70.5606 39.1426C71.6348 39.3184 72.5234 39.5625 73.2266 39.875C73.9297 40.1875 74.5742 40.5977 75.1602 41.1055C75.7656 41.5938 76.2344 42.1992 76.5664 42.9219C76.8984 43.625 77.1523 44.4551 77.3281 45.4121C77.5039 46.3691 77.5918 47.4727 77.5918 48.7227L72.377 49.9238C72.1816 47.7754 72.0547 46.5547 71.9961 46.2617C71.7617 45.2656 71.2051 44.5918 70.3262 44.2402C69.3496 43.8301 67.3086 43.625 64.2031 43.625C62.5039 43.625 61.0977 43.6738 59.9844 43.7715C58.8906 43.8691 57.9922 44.0156 57.2891 44.2109C56.5859 44.3867 56.0586 44.6602 55.707 45.0312C55.375 45.4023 55.1504 45.8027 55.0332 46.2324C54.916 46.6426 54.8574 47.1895 54.8574 47.873V52.9414C54.8574 54.7773 55.6582 55.832 57.2598 56.1055L67.7481 57.8926C68.7246 58.0488 69.5059 58.1855 70.0918 58.3027C70.6777 58.4199 71.3516 58.5762 72.1133 58.7715C72.875 58.9668 73.4707 59.1719 73.9004 59.3867C74.3301 59.6016 74.8086 59.875 75.3359 60.207C75.8633 60.5391 76.2734 60.9102 76.5664 61.3203C76.8594 61.7305 77.1523 62.2188 77.4453 62.7852C77.7578 63.3516 77.9824 63.9961 78.1191 64.7188C78.2754 65.4219 78.4023 66.2324 78.5 67.1504C78.5977 68.0488 78.6465 69.0645 78.6465 70.1973Z" fill="white"/>
<path d="M42.33 96.8H24.13L23.01 95.68L23.57 24.77L24.69 23.65H42.89L44.01 24.77V31.21L42.89 32.33H31.34L32.6 56.83L32.74 88.12H42.33L43.45 89.24V95.68L42.33 96.8Z" fill="#6366F1"/>
<path d="M103.77 104.8H85.57L84.45 103.68V97.24L85.57 96.12H95.09L95.44 40.33H85.01L83.89 39.21V32.77L85.01 31.65H102.09L103.21 32.77L104.61 64.83L104.89 103.68L103.77 104.8Z" fill="#6366F1"/>
</g>
<defs>
<clipPath id="clip0_1_2">
<rect width="128" height="128" fill="white"/>
</clipPath>
</defs>
</svg>
