<svg width="74" height="72" viewBox="0 0 74 72" fill="current" xmlns="http://www.w3.org/2000/svg">
<path d="M8 16.1081C8 15.549 8.2173 15.0128 8.60409 14.6175C8.99089 14.2221 9.51549 14 10.0625 14H30.6793C34.9858 14 38.778 16.2487 40.9945 19.661C42.1225 17.9192 43.6554 16.4903 45.456 15.5024C47.2567 14.5145 49.2689 13.9983 51.3125 14H71.9375C72.4845 14 73.0091 14.2221 73.3959 14.6175C73.7827 15.0128 74 15.549 74 16.1081V58.4477C73.9993 58.7256 73.945 59.0005 73.8402 59.2569C73.7355 59.5132 73.5823 59.7459 73.3894 59.9417C73.1966 60.1375 72.9679 60.2925 72.7164 60.3979C72.4649 60.5033 72.1956 60.557 71.9238 60.5559L50.7982 60.4097C49.7054 60.4018 48.6219 60.6159 47.6107 61.0395C46.5995 61.4632 45.6807 62.088 44.9078 62.8776L42.4603 65.3821C42.2687 65.578 42.0413 65.7334 41.791 65.8394C41.5406 65.9454 41.2723 66 41.0014 66C40.7304 66 40.4621 65.9454 40.2118 65.8394C39.9615 65.7334 39.734 65.578 39.5425 65.3821L37.062 62.8495C36.2965 62.0659 35.3872 61.4444 34.3864 61.0204C33.3855 60.5964 32.3127 60.3784 31.2292 60.3788H10.0625C9.51549 60.3788 8.99089 60.1567 8.60409 59.7613C8.2173 59.366 8 58.8298 8 58.2707V16.1081ZM43.0625 58.9228C45.2713 57.1372 48.0097 56.1745 50.8258 56.1934L69.875 56.3256V18.2163H51.3125C49.1245 18.2163 47.026 19.1047 45.4789 20.6861C43.9317 22.2675 43.0625 24.4123 43.0625 26.6488V58.9228ZM38.9292 26.6403C38.9271 24.4054 38.0569 22.2627 36.51 20.6831C34.963 19.1035 32.8659 18.2163 30.6793 18.2163H12.125V56.1625H31.2292C34.0287 56.1625 36.7458 57.1351 38.9375 58.9171L38.9292 26.6403Z" fill="#FE91E8"/>
<path d="M38.9292 26.6403C38.9271 24.4054 38.0569 22.2627 36.51 20.6831C34.963 19.1035 32.8659 18.2163 30.6793 18.2163H12.125V56.1625H31.2292C34.0287 56.1625 36.7458 57.1351 38.9375 58.9171L38.9292 26.6403Z" fill="#FE91E8"/>
<path d="M43.0625 58.9228C45.2713 57.1372 48.0097 56.1745 50.8258 56.1934L69.875 56.3256V18.2163H51.3125C49.1245 18.2163 47.026 19.1047 45.4789 20.6861C43.9317 22.2675 43.0625 24.4123 43.0625 26.6488V58.9228Z" fill="#FE91E8"/>
<path d="M0 11.25C0 10.6533 0.237053 10.081 0.65901 9.65901C1.08097 9.23706 1.65326 9 2.25 9H24.741C29.439 9 33.576 11.4 35.994 15.042C37.2245 13.1829 38.8968 11.6579 40.8611 10.6035C42.8255 9.5491 45.0206 8.99816 47.25 9H69.75C70.3467 9 70.919 9.23706 71.341 9.65901C71.7629 10.081 72 10.6533 72 11.25V56.439C71.9992 56.7355 71.94 57.029 71.8257 57.3026C71.7114 57.5762 71.5443 57.8246 71.3339 58.0336C71.1236 58.2425 70.8741 58.408 70.5997 58.5204C70.3254 58.6329 70.0315 58.6902 69.735 58.689L46.689 58.533C45.4968 58.5245 44.3148 58.753 43.2117 59.2052C42.1086 59.6574 41.1063 60.3242 40.263 61.167L37.593 63.84C37.384 64.0491 37.1359 64.215 36.8629 64.3281C36.5898 64.4413 36.2971 64.4995 36.0015 64.4995C35.7059 64.4995 35.4132 64.4413 35.1401 64.3281C34.8671 64.215 34.6189 64.0491 34.41 63.84L31.704 61.137C30.8689 60.3007 29.877 59.6373 28.7851 59.1848C27.6933 58.7323 26.5229 58.4996 25.341 58.5H2.25C1.65326 58.5 1.08097 58.263 0.65901 57.841C0.237053 57.419 0 56.8467 0 56.25L0 11.25ZM38.25 56.946C40.6596 55.0403 43.6469 54.0128 46.719 54.033L67.5 54.174V13.5H47.25C44.8631 13.5 42.5739 14.4482 40.886 16.136C39.1982 17.8239 38.25 20.1131 38.25 22.5V56.946ZM33.741 22.491C33.7386 20.1056 32.7893 17.8187 31.1018 16.1329C29.4142 14.447 27.1264 13.5 24.741 13.5H4.5V54H25.341C28.395 54 31.359 55.038 33.75 56.94L33.741 22.491Z" fill="current"/>
</svg>
