<svg width="72" height="72" viewBox="0 0 72 72" fill="current" xmlns="http://www.w3.org/2000/svg">
<g clip-path="url(#clip0_1326_98)">
<path d="M16.5 70V12.5C16.5 11.3954 17.3954 10.5 18.5 10.5H65C66.1046 10.5 67 11.3954 67 12.5V70C67 71.1046 66.1046 72 65 72H18.5C17.3954 72 16.5 71.1046 16.5 70Z" fill="#FE9829"/>
<path d="M9 9C9 7.4087 9.63214 5.88258 10.7574 4.75736C11.8826 3.63214 13.4087 3 15 3H44.946C46.5372 3.00034 48.063 3.6327 49.188 4.758L61.242 16.812C62.3673 17.937 62.9997 19.4628 63 21.054V63C63 64.5913 62.3679 66.1174 61.2426 67.2426C60.1174 68.3679 58.5913 69 57 69H14.25C13.6533 69 13.081 68.7629 12.659 68.341C12.2371 67.919 12 67.3467 12 66.75C12 66.1533 12.2371 65.581 12.659 65.159C13.081 64.7371 13.6533 64.5 14.25 64.5H57C57.3978 64.5 57.7794 64.342 58.0607 64.0607C58.342 63.7794 58.5 63.3978 58.5 63V25.5H46.5C44.9087 25.5 43.3826 24.8679 42.2574 23.7426C41.1321 22.6174 40.5 21.0913 40.5 19.5V7.5H15C14.6022 7.5 14.2206 7.65804 13.9393 7.93934C13.658 8.22064 13.5 8.60218 13.5 9V27.75C13.5 28.3467 13.2629 28.919 12.841 29.341C12.419 29.7629 11.8467 30 11.25 30C10.6533 30 10.081 29.7629 9.65901 29.341C9.23705 28.919 9 28.3467 9 27.75V9ZM45 7.5V19.5C45 19.8978 45.158 20.2794 45.4393 20.5607C45.7206 20.842 46.1022 21 46.5 21H58.5C58.4868 20.6207 58.3303 20.2605 58.062 19.992L46.008 7.938C45.7395 7.66973 45.3793 7.51322 45 7.5Z" fill="current"/>
<path d="M13.5898 36.72C13.7909 36.9365 13.9475 37.1905 14.0504 37.4674C14.1534 37.7444 14.2008 38.0389 14.19 38.3342C14.1791 38.6295 14.1102 38.9198 13.9871 39.1885C13.8641 39.4571 13.6893 39.6989 13.4728 39.9L5.55581 47.25L13.4758 54.6C13.6925 54.8013 13.8674 55.0433 13.9905 55.3123C14.1137 55.5812 14.1827 55.8717 14.1935 56.1673C14.2044 56.4628 14.1569 56.7577 14.0539 57.0349C13.9508 57.3121 13.7941 57.5663 13.5928 57.783C13.3915 57.9997 13.1495 58.1746 12.8806 58.2977C12.6116 58.4209 12.3211 58.4899 12.0255 58.5007C11.4286 58.5227 10.8474 58.3066 10.4098 57.9L0.719806 48.9C0.49262 48.6894 0.311378 48.4341 0.187433 48.1502C0.0634881 47.8663 -0.000488281 47.5598 -0.000488281 47.25C-0.000488281 46.9402 0.0634881 46.6337 0.187433 46.3498C0.311378 46.0659 0.49262 45.8106 0.719806 45.6L10.4098 36.6C10.6265 36.3991 10.8806 36.2428 11.1577 36.14C11.4348 36.0373 11.7294 35.9902 12.0247 36.0013C12.32 36.0125 12.6102 36.0817 12.8787 36.205C13.1473 36.3283 13.3889 36.5033 13.5898 36.72ZM25.5268 39.9C25.3101 39.6991 25.1351 39.4575 25.0118 39.1889C24.8885 38.9204 24.8193 38.6301 24.8082 38.3349C24.7857 37.7385 25.001 37.1576 25.4068 36.72C25.8126 36.2824 26.3756 36.0239 26.972 36.0014C27.5683 35.9789 28.1492 36.1942 28.5868 36.6L38.2798 45.6C38.507 45.8106 38.6882 46.0659 38.8122 46.3498C38.9361 46.6337 39.0001 46.9402 39.0001 47.25C39.0001 47.5598 38.9361 47.8663 38.8122 48.1502C38.6882 48.4341 38.507 48.6894 38.2798 48.9L28.5898 57.9C28.1522 58.3062 27.5712 58.5219 26.9745 58.4997C26.3779 58.4774 25.8145 58.2191 25.4083 57.7815C25.0021 57.3439 24.7864 56.7629 24.8086 56.1662C24.8309 55.5696 25.0892 55.0062 25.5268 54.6L33.4438 47.25L25.5268 39.9Z" fill="current"/>
</g>
<defs>
<clipPath id="clip0_1326_98">
<rect width="72" height="72" fill="white"/>
</clipPath>
</defs>
</svg>
