<svg width="72" height="72" viewBox="0 0 72 72" fill="current" xmlns="http://www.w3.org/2000/svg">
<path d="M40 62.9811L40.9355 64.7759C40.6462 64.9232 40.3255 65 40 65C39.6745 65 39.3538 64.9232 39.0645 64.7759L39.0564 64.7705L39.0373 64.7625L38.9691 64.7275C33.8925 62.0073 29.1104 58.7831 24.6973 55.1051C17.6364 49.1772 10 40.4562 10 30.1826V30.1799C10 20.8697 17.7155 14 25.6436 14C31.9 14 36.9482 17.299 40 22.355C43.0545 17.299 48.1 14 54.3564 14C62.2818 14 70 20.867 70 30.1826C70 40.4562 62.3609 49.1799 55.3027 55.1051C50.8894 58.783 46.1074 62.0071 41.0309 64.7275L40.9627 64.7625L40.9436 64.7705L40.9382 64.7732L40 62.9811Z" fill="#FF5A34"/>
<path d="M36 62.109L37.029 64.11C36.7108 64.2742 36.358 64.3598 36 64.3598C35.642 64.3598 35.2892 64.2742 34.971 64.11L34.962 64.104L34.941 64.095L34.866 64.056C29.2817 61.0233 24.0215 57.4287 19.167 53.328C11.4 46.719 3 36.996 3 25.542V25.539C3 15.159 11.487 7.5 20.208 7.5C27.09 7.5 32.643 11.178 36 16.815C39.36 11.178 44.91 7.5 51.792 7.5C60.51 7.5 69 15.156 69 25.542C69 36.996 60.597 46.722 52.833 53.328C47.9784 57.4285 42.7182 61.0231 37.134 64.056L37.059 64.095L37.038 64.104L37.032 64.107L36 62.109ZM20.208 12C13.971 12 7.5 17.64 7.5 25.542C7.5 34.863 14.472 43.422 22.083 49.902C26.3405 53.4991 30.9267 56.6881 35.781 59.427L36 59.55L36.219 59.43C37.032 58.971 38.202 58.29 39.609 57.408C42.429 55.644 46.179 53.085 49.917 49.902C57.528 43.422 64.5 34.863 64.5 25.542C64.5 17.64 58.029 12 51.792 12C45.474 12 40.389 16.167 38.133 22.929C37.9815 23.3745 37.6943 23.7613 37.3118 24.0353C36.9292 24.3092 36.4705 24.4565 36 24.4565C35.5295 24.4565 35.0708 24.3092 34.6882 24.0353C34.3057 23.7613 34.0185 23.3745 33.867 22.929C31.611 16.167 26.523 12 20.208 12Z" fill="current"/>
</svg>
