<svg width="72" height="72" viewBox="0 0 72 72" fill="none" xmlns="http://www.w3.org/2000/svg">
<path d="M52.6797 16.229C53.4642 15.4421 54.5278 15 55.6368 15C56.7458 15 57.8094 15.4421 58.5939 16.229L64.7758 22.4352C65.5597 23.2227 66 24.2905 66 25.4038C66 26.5172 65.5597 27.585 64.7758 28.3725L58.099 35.0754L58.0704 35.1066L32.1858 59.9094C31.7128 60.3631 31.1405 60.6992 30.5149 60.891L17.312 64.9228C17.0016 65.0173 16.6714 65.0252 16.3569 64.9457C16.0423 64.8662 15.7552 64.7024 15.5263 64.4716C15.2965 64.2418 15.1332 63.9536 15.0541 63.6378C14.9749 63.322 14.9828 62.9905 15.0769 62.6789L19.0762 49.4795C19.286 48.7886 19.6697 48.1637 20.1902 47.6652L46.0174 22.9151L52.6797 16.229ZM22.6668 50.2691C22.5929 50.3408 22.5378 50.4299 22.5066 50.5283L19.485 60.4974L29.4702 57.4471C29.5597 57.4192 29.6416 57.3707 29.7093 57.3055L54.267 33.7722L47.2389 26.719L22.6668 50.2691ZM56.8321 31.2596L62.2418 25.831C62.2975 25.7753 62.3416 25.7091 62.3717 25.6362C62.4019 25.5633 62.4174 25.4851 62.4174 25.4062C62.4174 25.3273 62.4019 25.2492 62.3717 25.1763C62.3416 25.1034 62.2975 25.0372 62.2418 24.9814L56.0599 18.7753C56.0044 18.7195 55.9385 18.6751 55.8659 18.6449C55.7933 18.6146 55.7154 18.5991 55.6368 18.5991C55.5582 18.5991 55.4804 18.6146 55.4078 18.6449C55.3351 18.6751 55.2692 18.7195 55.2137 18.7753L49.8063 24.2039L56.8321 31.2596Z" fill="#1EA293"/>
<path d="M22.6668 50.2691C22.5929 50.3408 22.5378 50.4299 22.5066 50.5283L19.485 60.4974L29.4702 57.4471C29.5597 57.4192 29.6416 57.3707 29.7093 57.3055L54.267 33.7722L47.2389 26.719L22.6668 50.2691Z" fill="#1EA293"/>
<path d="M56.8321 31.2596L62.2418 25.831C62.2975 25.7753 62.3416 25.7091 62.3717 25.6362C62.4019 25.5633 62.4174 25.4851 62.4174 25.4062C62.4174 25.3273 62.4019 25.2492 62.3717 25.1763C62.3416 25.1034 62.2975 25.0372 62.2418 24.9814L56.0599 18.7753C56.0044 18.7195 55.9385 18.6751 55.8659 18.6449C55.7933 18.6146 55.7154 18.5991 55.6368 18.5991C55.5582 18.5991 55.4804 18.6146 55.4078 18.6449C55.3351 18.6751 55.2692 18.7195 55.2137 18.7753L49.8063 24.2039L56.8321 31.2596Z" fill="#1EA293"/>
<path d="M51.7889 6.53101C52.7734 5.54724 54.1082 4.99463 55.4999 4.99463C56.8917 4.99463 58.2265 5.54724 59.2109 6.53101L66.9689 14.289C67.9527 15.2735 68.5053 16.6083 68.5053 18C68.5053 19.3918 67.9527 20.7265 66.9689 21.711L58.59 30.09L58.5539 30.129L26.0699 61.134C25.4763 61.7011 24.7581 62.1213 23.9729 62.361L7.40395 67.401C7.01438 67.5191 6.60003 67.529 6.20527 67.4297C5.8105 67.3303 5.4502 67.1254 5.16295 66.837C4.87451 66.5498 4.66965 66.1895 4.5703 65.7947C4.47095 65.3999 4.48085 64.9856 4.59895 64.596L9.61795 48.096C9.88118 47.2324 10.3627 46.4512 11.0159 45.828L43.4279 14.889L51.7889 6.53101ZM14.1239 49.083C14.0312 49.1727 13.9621 49.284 13.9229 49.407L10.1309 61.869L22.6619 58.056C22.7743 58.0211 22.877 57.9605 22.9619 57.879L53.7809 28.461L44.9609 19.644L14.1239 49.083ZM56.9999 25.32L63.7889 18.534C63.8588 18.4643 63.9142 18.3816 63.952 18.2905C63.9898 18.1993 64.0093 18.1017 64.0093 18.003C64.0093 17.9044 63.9898 17.8067 63.952 17.7156C63.9142 17.6244 63.8588 17.5417 63.7889 17.472L56.0309 9.71401C55.9613 9.64416 55.8785 9.58875 55.7874 9.55094C55.6963 9.51313 55.5986 9.49367 55.4999 9.49367C55.4013 9.49367 55.3036 9.51313 55.2125 9.55094C55.1214 9.58875 55.0386 9.64416 54.9689 9.71401L48.1829 16.5L56.9999 25.32Z" fill="current"/>
</svg>
